<svg width="778" height="325" viewBox="0 0 778 325" fill="none" xmlns="http://www.w3.org/2000/svg">
<g clip-path="url(#clip0_1_110)">
<g clip-path="url(#clip1_1_110)">
<path d="M111.261 -1L0 318.859V325H72.212L77.281 310.614L183 5.14142V-1H111.261ZM178.06 169.614H173.506C164.798 203.392 154.069 235.022 141.546 263.838C119.508 316.082 94.2923 320.962 91.8007 325.084H178.06V169.614ZM11.8993 154.47H16.4958C25.2043 120.692 35.9332 89.0617 48.4563 60.2459C70.4937 8.00181 95.7528 3.12232 98.2014 -1H11.8993V154.47Z" fill="black"/>
</g>
<path d="M320.4 329.05C306 329.05 293.1 324.25 281.7 314.65C270.3 305.05 261.15 291.55 254.25 274.15C247.65 256.45 244.35 236.05 244.35 212.95C244.35 189.25 247.8 168.4 254.7 150.4C261.6 132.4 271.05 118.3 283.05 108.1C295.05 97.9 308.4 92.8 323.1 92.8C340.8 92.8 355.05 100.15 365.85 114.85C376.95 129.25 382.5 152.8 382.5 185.5C382.5 195.4 378.75 200.35 371.25 200.35H285.75C279.75 200.35 276.75 203.8 276.75 210.7C276.75 242.5 281.4 266.35 290.7 282.25C300 298.15 311.85 306.1 326.25 306.1C337.65 306.1 346.95 302.05 354.15 293.95C361.35 285.85 367.2 272.2 371.7 253C372.6 249.7 374.55 248.05 377.55 248.05C381.15 248.05 382.5 251.05 381.6 257.05C376.8 283.75 369.15 302.5 358.65 313.3C348.15 323.8 335.4 329.05 320.4 329.05ZM284.4 189.1H329.85C344.25 189.1 351.45 181.6 351.45 166.6C351.45 147.1 349.05 131.8 344.25 120.7C339.45 109.6 332.25 104.05 322.65 104.05C310.95 104.05 301.05 110.8 292.95 124.3C285.15 137.8 280.05 157 277.65 181.9C277.05 186.7 279.3 189.1 284.4 189.1ZM443.461 325C438.961 325 436.711 323.35 436.711 320.05C436.711 317.35 438.661 315.55 442.561 314.65L447.961 313.75C454.261 312.55 458.311 310.75 460.111 308.35C462.211 305.65 463.261 301.15 463.261 294.85V143.65C463.261 138.25 462.361 134.65 460.561 132.85C459.061 130.75 456.211 129.4 452.011 128.8L442.561 127.45C438.661 127.15 436.711 125.5 436.711 122.5C436.711 120.1 439.111 118.45 443.911 117.55C453.211 116.05 460.261 113.65 465.061 110.35C470.161 107.05 475.411 103 480.811 98.2C483.511 95.5 485.761 94.15 487.561 94.15C490.261 94.15 491.611 95.95 491.611 99.55V119.8C491.611 122.5 492.511 124.3 494.311 125.2C496.411 125.8 498.661 124.9 501.061 122.5C513.061 111.1 523.561 103.3 532.561 99.1C541.861 94.9 551.611 92.8 561.811 92.8C575.311 92.8 586.111 97.6 594.211 107.2C602.311 116.5 606.361 130.3 606.361 148.6V294.85C606.361 301.15 607.261 305.65 609.061 308.35C611.161 310.75 615.361 312.4 621.661 313.3L631.561 314.65C634.861 315.25 636.511 317.05 636.511 320.05C636.511 323.35 634.711 325 631.111 325H555.511C551.311 325 549.211 323.35 549.211 320.05C549.211 317.05 550.861 315.25 554.161 314.65L560.461 313.75C566.761 312.85 570.811 311.05 572.611 308.35C574.711 305.65 575.761 301.15 575.761 294.85V153.55C575.761 138.85 573.061 128.5 567.661 122.5C562.261 116.5 554.611 113.5 544.711 113.5C535.111 113.5 526.411 116.35 518.611 122.05C511.111 127.45 505.111 134.8 500.611 144.1C496.111 153.1 493.861 163.15 493.861 174.25V294.85C493.861 301.15 494.761 305.65 496.561 308.35C498.661 311.05 502.861 312.7 509.161 313.3L521.311 314.65C524.611 315.25 526.261 316.9 526.261 319.6C526.261 323.2 524.011 325 519.511 325H443.461ZM728.638 52.75C722.338 52.75 716.938 50.5 712.438 46C708.238 41.5 706.138 35.8 706.138 28.9C706.138 22 708.238 16.45 712.438 12.25C716.938 7.74998 722.338 5.49998 728.638 5.49998C734.938 5.49998 740.188 7.74998 744.388 12.25C748.588 16.45 750.688 22 750.688 28.9C750.688 35.8 748.588 41.5 744.388 46C740.188 50.5 734.938 52.75 728.638 52.75ZM690.838 325C686.338 325 684.088 323.35 684.088 320.05C684.088 317.35 686.038 315.55 689.938 314.65L695.338 313.75C702.838 312.55 707.638 310.75 709.738 308.35C711.838 305.65 712.888 301.15 712.888 294.85V143.65C712.888 138.25 711.988 134.65 710.188 132.85C708.688 130.75 705.838 129.4 701.638 128.8L692.188 127.45C688.288 127.15 686.338 125.5 686.338 122.5C686.338 120.1 688.738 118.45 693.538 117.55C702.838 116.05 710.338 113.65 716.038 110.35C721.738 107.05 727.288 103 732.688 98.2C735.388 95.5 737.638 94.15 739.438 94.15C742.138 94.15 743.488 95.95 743.488 99.55V294.85C743.488 301.15 744.388 305.65 746.188 308.35C747.988 311.05 751.438 312.7 756.538 313.3L767.788 314.65C771.088 315.25 772.738 316.9 772.738 319.6C772.738 323.2 770.488 325 765.988 325H690.838Z" fill="black"/>
</g>
<defs>
<clipPath id="clip0_1_110">
<rect width="778" height="325" fill="white"/>
</clipPath>
<clipPath id="clip1_1_110">
<rect width="183" height="326" fill="white" transform="translate(0 -1)"/>
</clipPath>
</defs>
</svg>
